/* XPM */
static char *_544c97aa4e348c0fd02daf8d96411d425wdmvd3XnVu1gbX[] = {
/* columns rows colors chars-per-pixel */
"16 16 188 2 ",
"   c #9D512E",
".  c #B05224",
"X  c #B0501F",
"o  c #AD4C1D",
"O  c #A0421B",
"+  c #631A19",
"@  c #953D1D",
"#  c #AF4D1D",
"$  c #B0501E",
"%  c #A1441B",
"&  c #611919",
"*  c #B04F1E",
"=  c #A1441C",
"-  c #9C4E2A",
";  c #9A391A",
":  c #9C3C19",
">  c #933216",
",  c #751910",
"<  c #550D16",
"1  c #9B3818",
"2  c #9B3B18",
"3  c #7A2011",
"4  c #540E16",
"5  c #953E1E",
"6  c #9C3818",
"7  c #A7451C",
"8  c #7E2412",
"9  c #510B16",
"0  c #863E25",
"q  c #731D13",
"w  c #64100F",
"e  c #65110E",
"r  c #610D0F",
"t  c #500B16",
"y  c #83311C",
"u  c #731D12",
"i  c #610E0F",
"p  c #500B17",
"a  c #761F14",
"s  c #8A3319",
"d  c #701C13",
"f  c #4D0916",
"g  c #581D20",
"h  c #5E1719",
"j  c #4F0D19",
"k  c #591318",
"l  c #5E181A",
"z  c #621B1A",
"x  c #601919",
"c  c #500D19",
"v  c #591419",
"b  c #5E171A",
"n  c #621A1A",
"m  c #510E19",
"M  c #561219",
"N  c #944724",
"B  c #A8481D",
"V  c #9B3F1B",
"C  c #5F1819",
"Z  c #8C361C",
"A  c #AB4C1E",
"S  c #A7481D",
"D  c #60191A",
"F  c #8D361C",
"G  c #A6471D",
"H  c #A5461D",
"J  c #61191A",
"K  c #8C371D",
"L  c #8E3F21",
"P  c #953216",
"I  c #751A0F",
"U  c #520C15",
"Y  c #7D2316",
"T  c #9F3E19",
"R  c #943217",
"E  c #530C16",
"W  c #7E2417",
"Q  c #A03F1A",
"!  c #A03D19",
"~  c #922F16",
"^  c #751A10",
"/  c #550E16",
"(  c #923C1E",
")  c #5A1417",
"_  c #640F0F",
"`  c #600D0F",
"'  c #5C0D12",
"]  c #661110",
"[  c #651010",
"{  c #681311",
"}  c #893219",
"|  c #721C13",
" . c #5F0D0F",
".. c #81311D",
"X. c #541920",
"o. c #5F1719",
"O. c #5F171A",
"+. c #5D171A",
"@. c #591319",
"#. c #5F181A",
"$. c #5D181B",
"%. c #5C171A",
"&. c #52101A",
"*. c #954624",
"=. c #A94B1E",
"-. c #A6481D",
";. c #A7481E",
":. c #8F3A1D",
">. c #A8491E",
",. c #A5461E",
"<. c #9A3F1B",
"1. c #9B4A24",
"2. c #9B3718",
"3. c #9D3D19",
"4. c #943216",
"5. c #75190F",
"6. c #530C15",
"7. c #7C2416",
"8. c #963E1E",
"9. c #9A3718",
"0. c #8E2B15",
"q. c #520B16",
"w. c #853B23",
"e. c #651110",
"r. c #4E0916",
"t. c #5B0D11",
"y. c #67110F",
"u. c #4F0B17",
"i. c #83311D",
"p. c #741D13",
"a. c #571D21",
"s. c #581419",
"d. c #5E1819",
"f. c #5D1719",
"g. c #4F0D18",
"h. c #581319",
"j. c #611A1A",
"k. c #59151B",
"l. c #611E20",
"z. c #9E411B",
"x. c #903B1D",
"c. c #AA4C1F",
"v. c #A84B1F",
"b. c #651C1B",
"n. c #601819",
"m. c #903F23",
"M. c #AA4F26",
"N. c #8C3D20",
"B. c #7C2010",
"V. c #540D16",
"C. c #963E1D",
"Z. c #9E3E18",
"A. c #A0431A",
"S. c #631A1A",
"D. c #943D1D",
"F. c #540D15",
"G. c #943F1F",
"H. c #9C3E1E",
"J. c #5B1517",
"K. c #630E0F",
"L. c #510C17",
"P. c #84311D",
"I. c #741E13",
"U. c #65110F",
"Y. c #651210",
"T. c #520C17",
"R. c #83301B",
"E. c #741D12",
"W. c #66100F",
"Q. c #65100F",
"!. c #621010",
"~. c #55111C",
"^. c #83331E",
"/. c #741F14",
"(. c #3F0F21",
"). c #460B1B",
"_. c #440B1C",
"`. c #490E1D",
"'. c #470C1C",
"]. c #460B1C",
"[. c #490E1C",
"{. c #460A1B",
"}. c #450B1B",
"|. c #4A1121",
" X c #4D1627",
".X c #4D1422",
"XX c #460D1C",
"oX c white",
/* pixels */
"  . X o O + @ # $ % & @ # * = & ",
"- ; : > , < @ 1 2 3 4 5 6 7 8 9 ",
"0 q w e r t y u e i p y a s d f ",
"g & h j k l z x c v b n & z m M ",
"N B V C Z A S V D F A G H V J K ",
"L P I U Y T R I E W Q ! ~ ^ / ( ",
") _ ` f ' ] [ ` f ' { } |  .p ..",
"X.o.O.+.+.c @.#.$.l j %.D #.+.&.",
"*.B =.-.V x Z A ;.V C :.>.,.<.#.",
"1.2.3.4.5.6.7.T R , 4 8.9.0.I q.",
"w.q e.w ` r.t.y.w ` u.i.p._ ` f ",
"a.C j s.d.+.f.g.h.O.+.j.#.g.k.l.",
"N z.D x.>.c.v.b.:.>.=.S V n.m.M.",
"N.B.V.C.1 Z.A.S.D.1 3.4.5.F.G.H.",
"J.K.L.P.I.U.Y.T.R.E.W.Q.!.~.^./.",
"(.)._.`.'.].)._.[.'.{.}.|. X.XXX"
};
