/* XPM */
static char *c798f2e1f8aa41a49a17a04a8c63613bb5tExas1vec8Zrd1[] = {
/* columns rows colors chars-per-pixel */
"16 16 193 2 ",
"   c #9D512E",
".  c #B05224",
"X  c #B0501F",
"o  c #AD4C1D",
"O  c #A0421B",
"+  c #631A19",
"@  c #953D1D",
"#  c #AF4D1D",
"$  c #B0501E",
"%  c #A1441B",
"&  c #611919",
"*  c #B04F1E",
"=  c #A1441C",
"-  c #9C4E2A",
";  c #9A391A",
":  c #9C3C19",
">  c #933216",
",  c #751910",
"<  c #550D16",
"1  c #9B3818",
"2  c #9B3B18",
"3  c #7A2011",
"4  c #540E16",
"5  c #953E1E",
"6  c #9C3818",
"7  c #A7451C",
"8  c #7E2412",
"9  c #510B16",
"0  c #873E25",
"q  c #741E12",
"w  c #66110F",
"e  c #65110E",
"r  c #610D0F",
"t  c #500B16",
"y  c #83311C",
"u  c #731D12",
"i  c #610E0F",
"p  c #500B17",
"a  c #761F14",
"s  c #8A3319",
"d  c #701C13",
"f  c #4D0916",
"g  c #4B0F19",
"h  c #4B0B16",
"j  c #4A0A16",
"k  c #4A0B16",
"l  c #591418",
"z  c #5E171A",
"x  c #621B1A",
"c  c #601919",
"v  c #500D19",
"b  c #591419",
"n  c #621A1A",
"m  c #510E19",
"M  c #561219",
"N  c #480B16",
"B  c #4B0C16",
"V  c #8D371B",
"C  c #AB4C1E",
"Z  c #A7481D",
"A  c #9B3F1B",
"S  c #60191A",
"D  c #8D361C",
"F  c #A6471D",
"G  c #A5461D",
"H  c #61191A",
"J  c #8C371D",
"K  c #7D2416",
"L  c #9F3E19",
"P  c #943217",
"I  c #751A0F",
"U  c #530C16",
"Y  c #7E2417",
"T  c #A03F1A",
"R  c #A03D19",
"E  c #922F16",
"W  c #751A10",
"Q  c #550E16",
"!  c #923C1E",
"~  c #470A16",
"^  c #460A16",
"/  c #470915",
"(  c #5C0D11",
")  c #661110",
"_  c #651010",
"`  c #600D0F",
"'  c #5C0D12",
"]  c #681311",
"[  c #731D13",
"{  c #510C17",
"}  c #82311D",
"|  c #57181B",
" . c #5D1918",
".. c #5D181A",
"X. c #591319",
"o. c #5F181A",
"O. c #5D181B",
"+. c #5E181A",
"@. c #4F0D18",
"#. c #4C0C17",
"$. c #4B0B17",
"%. c #490917",
"&. c #480A17",
"*. c #4C0C19",
"=. c #954624",
"-. c #A8481D",
";. c #A94B1E",
":. c #A6481D",
">. c #8C361C",
",. c #A7481E",
"<. c #5C1619",
"1. c #470918",
"2. c #9B4A24",
"3. c #9B3718",
"4. c #9D3D19",
"5. c #943216",
"6. c #75190F",
"7. c #530C15",
"8. c #7C2416",
"9. c #500B15",
"0. c #853B23",
"q. c #651110",
"w. c #64100F",
"e. c #4E0916",
"r. c #5B0D11",
"t. c #67110F",
"y. c #4C0916",
"u. c #450818",
"i. c #571D21",
"p. c #5F1819",
"a. c #4F0D19",
"s. c #581419",
"d. c #5E1819",
"f. c #5D171A",
"g. c #5D1719",
"h. c #581319",
"j. c #5F171A",
"k. c #5D1818",
"l. c #5C1818",
"z. c #4E0E17",
"x. c #571619",
"c. c #601D1E",
"v. c #944724",
"b. c #9E411B",
"n. c #903B1D",
"m. c #A8491E",
"M. c #AA4C1F",
"N. c #A84B1F",
"B. c #651C1B",
"V. c #8F3A1D",
"C. c #601819",
"Z. c #903F23",
"A. c #AA4F25",
"S. c #8C3D20",
"D. c #7C2010",
"F. c #540D16",
"G. c #963E1D",
"H. c #9E3E18",
"J. c #A0431A",
"K. c #631A1A",
"L. c #943D1D",
"P. c #540D15",
"I. c #943F1F",
"U. c #9C3E1E",
"Y. c #5B1517",
"T. c #630E0F",
"R. c #84311D",
"E. c #741E13",
"W. c #65110F",
"Q. c #651210",
"!. c #520C17",
"~. c #83301B",
"^. c #741D12",
"/. c #66100F",
"(. c #65100F",
"). c #621010",
"_. c #55111C",
"`. c #83331E",
"'. c #741F14",
"]. c #3F0F21",
"[. c #460B1B",
"{. c #440B1C",
"}. c #490E1D",
"|. c #470C1C",
" X c #460B1C",
".X c #490E1C",
"XX c #460A1B",
"oX c #450B1B",
"OX c #4A1121",
"+X c #4D1627",
"@X c #4D1422",
"#X c #460D1C",
"$X c white",
/* pixels */
"  . X o O + @ # $ % & @ # * = & ",
"- ; : > , < @ 1 2 3 4 5 6 7 8 9 ",
"0 q w e r t y u e i p y a s d f ",
"g h j k l z x c v b z n & x m M ",
"N N N B V C Z A S D C F G A H J ",
"N N N k K L P I U Y T R E W Q ! ",
"~ ~ ^ / ( ) _ ` f ' ] s [ r { } ",
"|  . . ...v X.o.O.+.@.#.$.%.&.*.",
"=.-.;.:.A c >.C ,.A <.^ N N N 1.",
"2.3.4.5.6.7.8.L P , 9.~ N N N 1.",
"0.[ q.w.` e.r.t.w.` y.^ ~ N ~ u.",
"i.p.a.s.d.f.g.@.h.j.f.k.l.z.x.c.",
"v.b.S n.m.M.N.B.V.m.;.Z A C.Z.A.",
"S.D.F.G.1 H.J.K.L.1 4.5.6.P.I.U.",
"Y.T.{ R.E.W.Q.!.~.^./.(.)._.`.'.",
"].[.{.}.|. X[.{..X|.XXoXOX+X@X#X"
};
