/* XPM */
static char *_332cbd3fcf14f8da2533eb133e2ee99rk22SZdHEkPhkVMK[] = {
/* columns rows colors chars-per-pixel */
"16 16 175 2 ",
"   c #9D512E",
".  c #B05224",
"X  c #B0501F",
"o  c #AD4C1D",
"O  c #A0421B",
"+  c #631A19",
"@  c #953D1D",
"#  c #AF4D1D",
"$  c #B0501E",
"%  c #A1441B",
"&  c #611919",
"*  c #B04F1E",
"=  c #A1441C",
"-  c #9C4E2A",
";  c #9A391A",
":  c #9C3C19",
">  c #933216",
",  c #751910",
"<  c #550D16",
"1  c #9B3818",
"2  c #9B3B18",
"3  c #7A2011",
"4  c #540E16",
"5  c #953E1E",
"6  c #9C3818",
"7  c #A7451C",
"8  c #7E2412",
"9  c #510B16",
"0  c #873E25",
"q  c #741E12",
"w  c #66110F",
"e  c #65110E",
"r  c #610D0F",
"t  c #500B16",
"y  c #83311C",
"u  c #731D12",
"i  c #610E0F",
"p  c #500B17",
"a  c #761F14",
"s  c #8A3319",
"d  c #701C13",
"f  c #4D0916",
"g  c #4B0F19",
"h  c #4B0B16",
"j  c #4A0A16",
"k  c #4A0B16",
"l  c #591418",
"z  c #5E171A",
"x  c #621B1A",
"c  c #601919",
"v  c #500D19",
"b  c #591419",
"n  c #621A1A",
"m  c #510E19",
"M  c #561219",
"N  c #480B16",
"B  c #4B0C16",
"V  c #8D371B",
"C  c #AB4C1E",
"Z  c #A7481D",
"A  c #9B3F1B",
"S  c #60191A",
"D  c #8D361C",
"F  c #A6471D",
"G  c #A5461D",
"H  c #61191A",
"J  c #8C371D",
"K  c #7D2416",
"L  c #9F3E19",
"P  c #943217",
"I  c #751A0F",
"U  c #530C16",
"Y  c #7E2417",
"T  c #A03F1A",
"R  c #A03D19",
"E  c #922F16",
"W  c #751A10",
"Q  c #550E16",
"!  c #923C1E",
"~  c #470A16",
"^  c #460A16",
"/  c #470915",
"(  c #5C0D11",
")  c #671110",
"_  c #620E0F",
"`  c #4F0A16",
"'  c #5D0E12",
"]  c #691410",
"[  c #731D13",
"{  c #510C17",
"}  c #82311D",
"|  c #57181B",
" . c #5D1918",
".. c #5D181A",
"X. c #4F0D18",
"o. c #490A16",
"O. c #480A16",
"+. c #4C0D17",
"@. c #4B0B17",
"#. c #490917",
"$. c #480A17",
"%. c #4C0C19",
"&. c #954624",
"*. c #A8481D",
"=. c #A94B1E",
"-. c #A6481D",
";. c #5D1718",
":. c #470918",
">. c #9B4A24",
",. c #9B3718",
"<. c #9D3D19",
"1. c #943216",
"2. c #510B15",
"3. c #853B23",
"4. c #651110",
"5. c #65110F",
"6. c #4E0A15",
"7. c #460915",
"8. c #450818",
"9. c #571D21",
"0. c #5F1819",
"q. c #4E0D18",
"w. c #490A15",
"e. c #571419",
"r. c #5D1819",
"t. c #5C1818",
"y. c #5D1818",
"u. c #4E0E17",
"i. c #571619",
"p. c #601D1E",
"a. c #944724",
"s. c #9E411B",
"d. c #5D1619",
"f. c #460916",
"g. c #4B0B18",
"h. c #903B1D",
"j. c #A8491E",
"k. c #601819",
"l. c #903F23",
"z. c #AA4F25",
"x. c #8C3D20",
"c. c #7C2110",
"v. c #500B15",
"b. c #4B0C18",
"n. c #953E1D",
"m. c #75190F",
"M. c #540D15",
"N. c #943F1F",
"B. c #9C3E1E",
"V. c #5B1517",
"C. c #630E0F",
"Z. c #4E0A16",
"A. c #4A0B18",
"S. c #83311B",
"D. c #741D12",
"F. c #66100F",
"G. c #65100F",
"H. c #621010",
"J. c #55111C",
"K. c #83331E",
"L. c #741F14",
"P. c #3F0F21",
"I. c #460B1B",
"U. c #440B1C",
"Y. c #440C1A",
"T. c #430B1C",
"R. c #490E1C",
"E. c #470C1C",
"W. c #460A1B",
"Q. c #450B1B",
"!. c #4A1121",
"~. c #4D1627",
"^. c #4D1422",
"/. c #460D1C",
"(. c white",
/* pixels */
"  . X o O + @ # $ % & @ # * = & ",
"- ; : > , < @ 1 2 3 4 5 6 7 8 9 ",
"0 q w e r t y u e i p y a s d f ",
"g h j k l z x c v b z n & x m M ",
"N N N B V C Z A S D C F G A H J ",
"N N N k K L P I U Y T R E W Q ! ",
"~ ~ ^ / ( ) w _ ` ' ] s [ r { } ",
"|  . . ...X.o.j O.o.o.+.@.#.$.%.",
"&.*.=.-.A ;.^ N N N ~ ~ N N N :.",
">.,.<.1., 2.~ N N N ~ N N N N :.",
"3.[ 4.5.i 6.~ N ~ ^ 7.^ ~ N ~ 8.",
"9.0.q.o.w.O.N $.e.r.t.y.t.u.i.p.",
"a.s.d.f.N N N g.h.j.=.Z A k.l.z.",
"x.c.v.~ N N N b.n.1 <.1.m.M.N.B.",
"V.C.Z.~ N N O.A.S.D.F.G.H.J.K.L.",
"P.I.U.Y.Y.Y.Y.T.R.E.W.Q.!.~.^./."
};
