/* XPM */
static char *_0eb26f602ca4dede2956b10c5b7444aBW5VV8bUSGumvvYA[] = {
/* columns rows colors chars-per-pixel */
"16 16 129 2 ",
"   c #480B16",
".  c #470A15",
"X  c #470A16",
"o  c #4B0C18",
"O  c #963E1D",
"+  c #AF4D1D",
"@  c #B04F1E",
"#  c #A1441C",
"$  c #611919",
"%  c #963E1E",
"&  c #9C3818",
"*  c #A7451C",
"=  c #7E2412",
"-  c #510B16",
";  c #460A15",
":  c #460A16",
">  c #470B16",
",  c #490A18",
"<  c #83311C",
"1  c #761F14",
"2  c #8A3319",
"3  c #701C13",
"4  c #4E0916",
"5  c #480A16",
"6  c #490B16",
"7  c #581517",
"8  c #5D1918",
"9  c #5D1818",
"0  c #4E0E18",
"q  c #571418",
"w  c #5D181A",
"e  c #621A1A",
"r  c #621B1A",
"t  c #500E19",
"y  c #480917",
"u  c #4B0C16",
"i  c #8D371B",
"p  c #AB4C1E",
"a  c #A7481D",
"s  c #9B3F1B",
"d  c #60191A",
"f  c #8D361C",
"g  c #A6471D",
"h  c #A5461D",
"j  c #5D1719",
"k  c #460916",
"l  c #4A0B16",
"z  c #7D2416",
"x  c #9F3E19",
"c  c #943217",
"v  c #751A0F",
"b  c #530C16",
"n  c #7E2417",
"m  c #A03F1A",
"M  c #A03D19",
"N  c #922F16",
"B  c #751A10",
"V  c #460A17",
"C  c #470915",
"Z  c #5C0D11",
"A  c #671110",
"S  c #66110F",
"D  c #620E0F",
"F  c #4F0A16",
"G  c #5D0E12",
"H  c #691410",
"J  c #731D13",
"K  c #610E0F",
"L  c #4E0A16",
"P  c #470A17",
"I  c #57181B",
"U  c #4F0D18",
"Y  c #490A16",
"T  c #4A0A16",
"R  c #4C0D17",
"E  c #4B0B17",
"W  c #490917",
"Q  c #954624",
"!  c #A8481D",
"~  c #A94B1E",
"^  c #A6481D",
"/  c #5D1718",
"(  c #470918",
")  c #9B4A24",
"_  c #9B3718",
"`  c #9D3D19",
"'  c #943216",
"]  c #751910",
"[  c #510B15",
"{  c #853B23",
"}  c #651110",
"|  c #65110F",
" . c #4E0A15",
".. c #450818",
"X. c #571D21",
"o. c #5F1819",
"O. c #4E0D18",
"+. c #490A15",
"@. c #581619",
"#. c #601D1E",
"$. c #944724",
"%. c #9E411B",
"&. c #5D1619",
"*. c #4B0C17",
"=. c #924023",
"-. c #AA4F25",
";. c #8C3D20",
":. c #7C2110",
">. c #500B15",
",. c #953F1F",
"<. c #9C3E1E",
"1. c #5B1517",
"2. c #630E0F",
"3. c #480A15",
"4. c #4C0E19",
"5. c #83331D",
"6. c #741F14",
"7. c #3F0F21",
"8. c #460B1B",
"9. c #440B1C",
"0. c #440C1A",
"q. c #430C1A",
"w. c #440B1A",
"e. c #430C1B",
"r. c #460F1D",
"t. c #4A1322",
"y. c #4D1422",
"u. c #460D1C",
"i. c white",
/* pixels */
"          .       X o O + @ # $ ",
"          X       X o % & * = - ",
"        X ; : X > : , < 1 2 3 4 ",
"5 5 5 6 7 8 9 9 0 q w e $ r t y ",
"      u i p a s d f p g h s j k ",
"      l z x c v b n m M N B - V ",
"X X : C Z A S D F G H 2 J K L P ",
"I 8 8 8 w U Y T 5 Y Y R E W y y ",
"Q ! ~ ^ s / :       X X       ( ",
") _ ` ' ] [ X       X         ( ",
"{ J } | K  .X       X 5     . ..",
"X.o.O.Y +.5 . . 5 5 5 5 5 5 @.#.",
"$.%.&.k       .           *.=.-.",
";.:.>.X       .           *.,.<.",
"1.2.L X     3.3.          4.5.6.",
"7.8.9.0.0.0.0.q.w.0.0.e.r.t.y.u."
};
