/* XPM */
static char *_1e5488640b5442ef847f3afdf9a503byCXbDzt9hP6l4PAk[] = {
/* columns rows colors chars-per-pixel */
"16 16 65 1 ",
"  c #480B16",
". c #470A15",
"X c #470A16",
"o c #4B0C18",
"O c #963E1D",
"+ c #AF4D1D",
"@ c #B04F1E",
"# c #A1441C",
"$ c #611919",
"% c #963E1E",
"& c #9C3818",
"* c #A7451C",
"= c #7E2412",
"- c #510B16",
"; c #4A0B18",
": c #85321C",
"> c #772014",
", c #8B3319",
"< c #711C13",
"1 c #4E0916",
"2 c #480A16",
"3 c #480A15",
"4 c #480A17",
"5 c #4D0D17",
"6 c #4B0B17",
"7 c #470B16",
"8 c #480917",
"9 c #470917",
"0 c #470918",
"q c #450818",
"w c #56181B",
"e c #5C1818",
"r c #4D0E17",
"t c #581619",
"y c #601D1E",
"u c #944725",
"i c #9E421B",
"p c #5D1619",
"a c #460916",
"s c #4B0C17",
"d c #924023",
"f c #AA4F25",
"g c #8C3D20",
"h c #7C2110",
"j c #500B15",
"k c #953F1F",
"l c #9C3E1E",
"z c #5B1517",
"x c #630E0F",
"c c #4E0A16",
"v c #4C0E19",
"b c #83331D",
"n c #741F14",
"m c #3F0F21",
"M c #460B1B",
"N c #440B1C",
"B c #440C1A",
"V c #430C1A",
"C c #440B1A",
"Z c #430C1B",
"A c #460F1D",
"S c #4A1322",
"D c #4D1422",
"F c #460D1C",
"G c white",
/* pixels */
"     .   XoO+@#$",
"     X   Xo%&*=-",
"     .   X;:>,<1",
"22223   X24565;4",
"   2    X    78X",
"        X     9X",
"   2.   X     9X",
"22222.  .22222X8",
"     .    X2   0",
"     X    X    0",
"XX7  .2   X2  .q",
"werX2X..222222ty",
"uipa   .     sdf",
"ghjX   .     skl",
"zxcX  33     vbn",
"mMNBBBBVCBBZASDF"
};
