/* XPM */
static char *_4b12ebd318645d5a4f331b9cbda8468bhdXvMH0P2ijNSXe[] = {
/* columns rows colors chars-per-pixel */
"16 16 114 2 ",
"   c white",
".  c #FFFEFF",
"X  c #E9F8DB",
"o  c #EAFBD9",
"O  c #FEFEFE",
"+  c #FDFEFD",
"@  c #D2F3C0",
"#  c #9FE56D",
"$  c #B1F475",
"%  c #DFFCC6",
"&  c #FEFEFD",
"*  c #FBFEF7",
"=  c #CFF7B0",
"-  c #95E961",
";  c #A2EA66",
":  c #B7FC71",
">  c #BCFD7B",
",  c #E0FDBF",
"<  c #FDFEFA",
"1  c #F5FAF2",
"2  c #C4F79C",
"3  c #A7F866",
"4  c #97EB5B",
"5  c #ABE96D",
"6  c #BDFC77",
"7  c #C6FF7F",
"8  c #C7FE82",
"9  c #D8FCB1",
"0  c #F8FDF5",
"q  c #D5E6CF",
"w  c #71C048",
"e  c #9EF160",
"r  c #98DE5F",
"t  c #87BF59",
"y  c #A2DB68",
"u  c #C5FB7E",
"i  c #B8F675",
"p  c #7CCA4F",
"a  c #D3E7CB",
"s  c #D3E3CE",
"d  c #458F2E",
"f  c #65B63F",
"g  c #6EB34A",
"h  c #71AD4D",
"j  c #79B452",
"k  c #8DCF5B",
"l  c #64B73D",
"z  c #40912A",
"x  c #CBE0C5",
"c  c #D4E4CF",
"v  c #418B2B",
"b  c #418D2A",
"n  c #529A38",
"m  c #5EA740",
"M  c #61A943",
"N  c #58A23C",
"B  c #3D9226",
"V  c #3C8D28",
"C  c #CBE1C5",
"Z  c #D4E5CF",
"A  c #408C2B",
"S  c #368022",
"D  c #3C8229",
"F  c #41872C",
"G  c #43882F",
"H  c #3F852A",
"J  c #388C20",
"K  c #3B8B26",
"L  c #CFE2C9",
"P  c #D5E6D0",
"I  c #3F892A",
"U  c #2C6C1B",
"Y  c #337222",
"T  c #347423",
"R  c #357425",
"E  c #306E1F",
"W  c #33821C",
"Q  c #3B8725",
"!  c #D0E2CB",
"~  c #D6E5D1",
"^  c #346C24",
"/  c #204C13",
"(  c #275919",
")  c #306921",
"_  c #295C1B",
"`  c #215612",
"'  c #357722",
"]  c #D2E3CC",
"[  c #F1F5F0",
"{  c #718B69",
"}  c #204713",
"|  c #204913",
" . c #204B14",
".. c #1E4911",
"X. c #1A430E",
"o. c #183F0C",
"O. c #5D7C53",
"+. c #EBF1E9",
"@. c #F2F4F1",
"#. c #8A9E83",
"$. c #274C1B",
"%. c #1B420F",
"&. c #1A460D",
"*. c #214915",
"=. c #788F71",
"-. c #E8EBE6",
";. c #FBFBFA",
":. c #A6B5A0",
">. c #2F5324",
",. c #325826",
"<. c #A1B29B",
"1. c #F8F9F8",
"2. c #C7D0C4",
"3. c #CCD5C8",
/* pixels */
"                                ",
"            . X o O             ",
"          + @ # $ % &           ",
"        * = - ; : > , <         ",
"      1 2 3 4 5 6 7 8 9 0       ",
"      q w e r t y u i p a       ",
"      s d f g h j k l z x       ",
"      c v b n m M N B V C       ",
"      Z A S D F G H J K L       ",
"      P I U Y T R E W Q !       ",
"      ~ ^ / ( ) _ / ` ' ]       ",
"      [ { } |  ...X.o.O.+.      ",
"        @.#.$.%.&.*.=.-.        ",
"          ;.:.>.,.<.1.          ",
"            O 2.3.              ",
"                                "
};
