/* XPM */
static char *e772c9c70b5848b0d142b5c54cf61ee2sw4YUZh1jh3Zmn1n[] = {
/* columns rows colors chars-per-pixel */
"16 16 22 1 ",
"  c #480B16",
". c #470A15",
"X c #480917",
"o c #480A16",
"O c #460917",
"+ c #470A16",
"@ c #470917",
"# c #470A18",
"$ c #470A17",
"% c #480A15",
"& c #470918",
"* c #470B16",
"= c #3F0E20",
"- c #440B1B",
"; c #440C1A",
": c #430C1A",
"> c #440B1A",
", c #430C1B",
"< c #460F1D",
"1 c #491220",
"2 c #47101F",
"3 c white",
/* pixels */
"     .    Xo   O",
"     +    @+   #",
"     .    @+   $",
"oooo%     +   .o",
"   o          o+",
"              @+",
"   o.         $+",
"ooooo.    o   +X",
"     .    +    &",
"     +    +    &",
"     .o   +o  o@",
"     ...ooooo. o",
"     %o.     .  ",
"     % .     .  ",
"*oo %%%%    o  o",
"=--;;;;:>;;,<12,"
};
