/* XPM */
static char *_1b50870bb1440dd92762e1a5aec3180CYwgTLfbQalwSeW9[] = {
/* columns rows colors chars-per-pixel */
"16 16 248 2 ",
"   c #2B7214",
".  c #2A7413",
"X  c #2C7416",
"o  c #2A6F13",
"O  c #297115",
"+  c #2B7415",
"@  c #2B7216",
"#  c #286F15",
"$  c #286F16",
"%  c #307916",
"&  c #2B7615",
"*  c #2D7816",
"=  c #2A7516",
"-  c #2D7716",
";  c #307A17",
":  c #287014",
">  c #276C15",
",  c #296F15",
"<  c #296D15",
"1  c #296D14",
"2  c #2A7216",
"3  c #296E16",
"4  c #246A13",
"5  c #236D14",
"6  c #277314",
"7  c #257014",
"8  c #266F14",
"9  c #277014",
"0  c #246D14",
"q  c #2C7514",
"w  c #297114",
"e  c #236714",
"r  c #276A15",
"t  c #286A15",
"y  c #266814",
"u  c #2B6E16",
"i  c #2F6717",
"p  c #4A6D2A",
"a  c #5E7337",
"s  c #576B2E",
"d  c #46561E",
"f  c #3E591B",
"g  c #346919",
"h  c #2C6F16",
"j  c #266B14",
"k  c #2B7114",
"l  c #266D14",
"z  c #266614",
"x  c #286716",
"c  c #2A6B15",
"v  c #2A6C16",
"b  c #446823",
"n  c #7D583D",
"m  c #BA9078",
"M  c #D2A88F",
"N  c #BE8B78",
"B  c #93514B",
"V  c #9D6456",
"C  c #926A4D",
"Z  c #516427",
"A  c #2E6D17",
"S  c #286915",
"D  c #246612",
"F  c #296815",
"G  c #2D6D17",
"H  c #385A1A",
"J  c #895F47",
"K  c #C5927E",
"L  c #D5AD93",
"P  c #CEA684",
"I  c #B27B69",
"U  c #AD786A",
"Y  c #CFA68A",
"T  c #C79B71",
"R  c #744F31",
"E  c #2A6414",
"W  c #276814",
"Q  c #296C13",
"!  c #246315",
"~  c #296A16",
"^  c #316119",
"/  c #79533D",
"(  c #C08B79",
")  c #D0A987",
"_  c #D0A985",
"`  c #CAA277",
"'  c #BE9267",
"]  c #CAA27F",
"[  c #CEA683",
"{  c #C0916A",
"}  c #936A4D",
"|  c #3B661E",
" . c #2A6B18",
".. c #34761C",
"X. c #266416",
"o. c #286617",
"O. c #365F1C",
"+. c #895642",
"@. c #CEA580",
"#. c #C9A272",
"$. c #CBA477",
"%. c #CAA373",
"&. c #C2976A",
"*. c #C3986C",
"=. c #C4996D",
"-. c #B57C64",
";. c #A56D5A",
":. c #4F4F29",
">. c #2A6A18",
",. c #2D6D18",
"<. c #296517",
"1. c #2D681B",
"2. c #4B5A37",
"3. c #8C5341",
"4. c #C79F6C",
"5. c #C69E6D",
"6. c #C09669",
"7. c #C59E6C",
"8. c #B48361",
"9. c #A86E5B",
"0. c #BE8E68",
"q. c #BC8968",
"w. c #A06857",
"e. c #464521",
"r. c #2E6F18",
"t. c #296816",
"y. c #296818",
"u. c #2E6C1A",
"i. c #55432C",
"p. c #864239",
"a. c #BD9266",
"s. c #BE9168",
"d. c #A46C57",
"f. c #B78664",
"g. c #AF795F",
"h. c #844644",
"j. c #9D6253",
"k. c #9B6453",
"l. c #7B4040",
"z. c #424120",
"x. c #2E6F19",
"c. c #276617",
"v. c #2D6C1C",
"b. c #41311D",
"n. c #6F2325",
"m. c #915345",
"M. c #985E4E",
"N. c #9C6052",
"B. c #A86B5C",
"V. c #874441",
"C. c #5D2026",
"Z. c #712A2C",
"A. c #5E2127",
"S. c #471220",
"D. c #3C3B1D",
"F. c #2D6E1A",
"G. c #2B6A19",
"H. c #296519",
"J. c #266417",
"K. c #423A28",
"L. c #631D23",
"P. c #7E3735",
"I. c #763131",
"U. c #813C3B",
"Y. c #76383A",
"T. c #602025",
"R. c #591920",
"E. c #661D20",
"W. c #551820",
"Q. c #481624",
"!. c #3C4225",
"~. c #30701A",
"^. c #2C6A19",
"/. c #286217",
"(. c #266317",
"). c #385A32",
"_. c #4D3137",
"`. c #541B25",
"'. c #561921",
"]. c #6C2022",
"[. c #521821",
"{. c #4E1721",
"}. c #5B1B21",
"|. c #55171F",
" X c #491723",
".X c #513745",
"XX c #435E40",
"oX c #2D6719",
"OX c #2B6518",
"+X c #29661B",
"@X c #3E5D34",
"#X c #4D4945",
"$X c #4D252F",
"%X c #511620",
"&X c #4C1420",
"*X c #532C38",
"=X c #55303C",
"-X c #4C202D",
";X c #4D383C",
":X c #4D5E4D",
">X c #316623",
",X c #286B16",
"<X c #2F691A",
"1X c #2C651A",
"2X c #2A6319",
"3X c #2D671B",
"4X c #366F27",
"5X c #3E5930",
"6X c #383D1E",
"7X c #3D421F",
"8X c #4C5A33",
"9X c #44623E",
"0X c #40593A",
"qX c #365D2C",
"wX c #316C1D",
"eX c #276817",
"rX c #296A18",
"tX c #2B6419",
"yX c #2C6519",
"uX c #286117",
"iX c #286119",
"pX c #2E6B1C",
"aX c #35701E",
"sX c #316D1B",
"dX c #2E6C19",
"fX c #35731C",
"gX c #2B6919",
"hX c #2B681A",
"jX c #2C6B17",
"kX c #2B6B18",
"lX c #316F1B",
"zX c #2E6A1A",
"xX c #245A19",
"cX c #286017",
"vX c #2B6318",
"bX c #2B631A",
"nX c #346E1E",
"mX c #3B7622",
"MX c #2D671A",
"NX c #2C6719",
"BX c #2F6B1C",
"VX c #2D6C1A",
"CX c #296716",
"ZX c #2A6718",
"AX c #2E6B1A",
"SX c #266418",
"DX c #276717",
"FX c white",
/* pixels */
"  . X o O + @ # $ % & * = - ; : ",
"> , < 1 # 2 3 4 5 6 7 8 9 0 q w ",
"e r t y u i p a s d f g h j k l ",
"z x c v b n m M N B V C Z A S D ",
"F G S H J K L P I U Y T R E W Q ",
"! ~ ^ / ( ) _ ` ' ] [ { } |  ...",
"X.o.O.+.@.#.$.%.&.*.=.-.;.:.>.,.",
"<.1.2.3.4.5.6.7.8.9.0.q.w.e.r.t.",
"y.u.i.p.a.s.d.f.g.h.j.k.l.z.x.c.",
"v.t.b.n.m.M.N.B.V.C.Z.A.S.D.F.G.",
"H.J.K.L.P.I.U.Y.T.R.E.W.Q.!.~.^.",
"/.(.)._.`.'.].[.{.}.|. X.XXX>.t.",
"oXOX+X@X#X$X%X&X*X=X-X;X:X>Xy ,X",
"<X1X2X3X4X5X6X7X8X9X0XqXwXt.eXrX",
"tXyXuXiXpXaXsXu.dXfXgXhXjXkXlXzX",
"xXcXvXbX/.nXmXMXNXBXVXCXZXAXSXDX"
};
