/* XPM */
static char *_0f604fd717240a2dde8f6e78b030501W42Nc09c5o0J1zBb[] = {
/* columns rows colors chars-per-pixel */
"16 16 252 2 ",
"   c #3F0C1D",
".  c #3C111B",
"X  c #48040F",
"o  c #570E07",
"O  c #5A0A01",
"+  c #5A070F",
"@  c #5E070D",
"#  c #5F0B0B",
"$  c #5D0F0B",
"%  c #5E090C",
"&  c #5A0C0C",
"*  c #5F0F0E",
"=  c #5E0E0F",
"-  c #5D130A",
";  c #58150F",
":  c #420115",
">  c #440415",
",  c #4A0611",
"<  c #4C0611",
"1  c #4B0714",
"2  c #4B0416",
"3  c #430917",
"4  c #410E15",
"5  c #480B13",
"6  c #4F0810",
"7  c #4F0913",
"8  c #490B16",
"9  c #4D0B15",
"0  c #4D0B17",
"q  c #4A0D15",
"w  c #44031B",
"e  c #47031C",
"r  c #4A051A",
"t  c #4F071B",
"y  c #42091A",
"u  c #46091B",
"i  c #450A1E",
"p  c #400D1C",
"a  c #480818",
"s  c #490B1A",
"d  c #480B1B",
"f  c #4D0B19",
"g  c #490C1B",
"h  c #4D0A1C",
"j  c #4E091E",
"k  c #4A0D1D",
"l  c #480E1D",
"z  c #4D0E1F",
"x  c #520A16",
"c  c #5F0F10",
"v  c #5B0E14",
"b  c #5D0C15",
"n  c #5F0C14",
"m  c #5F0E14",
"M  c #5B0F19",
"N  c #531113",
"B  c #531313",
"V  c #571215",
"C  c #541216",
"Z  c #541414",
"A  c #571614",
"S  c #591311",
"D  c #581117",
"F  c #5D1717",
"G  c #571813",
"H  c #561916",
"J  c #5F1917",
"K  c #571119",
"L  c #54111A",
"P  c #54101B",
"I  c #521719",
"U  c #51161A",
"Y  c #591218",
"T  c #5A1319",
"R  c #5A131B",
"E  c #5B1619",
"W  c #59171B",
"Q  c #5B161B",
"!  c #5C1519",
"~  c #5D161A",
"^  c #5C171A",
"/  c #5E161A",
"(  c #59111C",
")  c #5C131C",
"_  c #5B141C",
"`  c #5D141D",
"'  c #5C141F",
"]  c #5D141F",
"[  c #53181C",
"{  c #5A1A1B",
"}  c #5F181C",
"|  c #610B0A",
" . c #600A0B",
".. c #650D09",
"X. c #640E0D",
"o. c #641206",
"O. c #65120E",
"+. c #6E1A0F",
"@. c #701302",
"#. c #741803",
"$. c #771208",
"%. c #77190F",
"&. c #7A180B",
"*. c #7F1E0B",
"=. c #78180C",
"-. c #600911",
";. c #630A10",
":. c #640813",
">. c #620D12",
",. c #600D17",
"<. c #690E15",
"1. c #6A1115",
"2. c #631815",
"3. c #6D1B10",
"4. c #641218",
"5. c #661A1E",
"6. c #741511",
"7. c #781710",
"8. c #731B11",
"9. c #751B10",
"0. c #741B13",
"q. c #701E10",
"w. c #721F11",
"e. c #711D12",
"r. c #7B2410",
"t. c #7D2414",
"y. c #70201F",
"u. c #7F2318",
"i. c #490220",
"p. c #440821",
"a. c #430C23",
"s. c #430F25",
"d. c #490921",
"f. c #490B20",
"g. c #480822",
"h. c #4B0C29",
"j. c #520821",
"k. c #4C1322",
"l. c #4E1A26",
"z. c #571020",
"x. c #551223",
"c. c #5C1223",
"v. c #5D1324",
"b. c #5B1724",
"n. c #571820",
"m. c #5A1822",
"M. c #5A1824",
"N. c #561229",
"B. c #58142D",
"V. c #621E29",
"C. c #802312",
"Z. c #892F14",
"A. c #8C2B1A",
"S. c #962F1C",
"D. c #853B1E",
"F. c #89391E",
"G. c #8C3B1E",
"H. c #9A3113",
"J. c #993616",
"K. c #9C3A13",
"L. c #9E3E16",
"P. c #97351A",
"I. c #993418",
"U. c #923E1A",
"Y. c #9F3B19",
"T. c #9C3B1B",
"R. c #9D3C1B",
"E. c #A23D13",
"W. c #A13D19",
"Q. c #A33C19",
"!. c #A5391C",
"~. c #A23F1F",
"^. c #872921",
"/. c #873A20",
"(. c #873B24",
"). c #893823",
"_. c #8B3B22",
"`. c #953B23",
"'. c #933C20",
"]. c #993A24",
"[. c #9F3B24",
"{. c #9E3B26",
"}. c #993929",
"|. c #A23F20",
" X c #9D4517",
".X c #9E4118",
"XX c #99441B",
"oX c #98401C",
"OX c #99411D",
"+X c #9D431E",
"@X c #9C441C",
"#X c #9E451D",
"$X c #A6450E",
"%X c #A64117",
"&X c #AD4A13",
"*X c #A84A17",
"=X c #A1451C",
"-X c #A4441E",
";X c #A94219",
":X c #AA421B",
">X c #A74D1B",
",X c #AD4918",
"<X c #AA4C19",
"1X c #A84C1B",
"2X c #AA4E1B",
"3X c #AB491C",
"4X c #AC4A1D",
"5X c #AD4D1D",
"6X c #AF5111",
"7X c #AE501A",
"8X c #AD511E",
"9X c #AE521F",
"0X c #B65717",
"qX c #B5501A",
"wX c #B2531D",
"eX c #B4501E",
"rX c #B7571D",
"tX c #B75A1F",
"yX c #B9591F",
"uX c #874024",
"iX c #8B4126",
"pX c #8B4426",
"aX c #934224",
"sX c #954224",
"dX c #994924",
"fX c #904528",
"gX c #9C4C29",
"hX c #9D4F29",
"jX c #94552A",
"kX c #A34221",
"lX c #A24A24",
"zX c #A64D25",
"xX c #AB4B21",
"cX c #A94C20",
"vX c #AB4F20",
"bX c #AC4F23",
"nX c #B34C21",
"mX c #B14E25",
"MX c #B44E26",
"NX c #B84E26",
"BX c #B94F27",
"VX c #A45022",
"CX c #A55029",
"ZX c #A1562E",
"AX c #B45221",
"SX c #B25124",
"DX c #B35124",
"FX c #B95521",
"GX c #B85126",
"HX c #B95823",
"JX c #B05528",
"KX c #BF532D",
/* pixels */
"jXKX8XwX3XR `.GXGX*XG OXMXqX5XA ",
"ZXY..XJ.%.6 =XK.kXr.e @XL.4XC.g ",
"iX3.@ >.b > _.q.| - r F.q.Z.y.w ",
"N.F / l S b.( } f ( F R _ 5.d S ",
"hX6XxX) `.yXDX1XR }.rX>XvXzXV T.",
"pXY.=.2 t.$XI.6.3 ^.:XW.S.#.j #X",
"N # b 9 b X.% c 5 + ..'.8.-.w D.",
"B.S R { ' l _ K / m.d.P H / { f ",
"dX0XbXnX<X[ U.FXmX&XI {.MX2X<Xm.",
"CXI.|.|.$.t C.:XP.6.5 @XQ.A.=.6 ",
"iX+.b o X., & 1.| - : ).0.X.O j.",
"x.2.8 I ' ' c.y N } M.v ) l P V.",
"gX7Xc.aXeXAXyXJ sXAXbXFXzXz.dXJX",
"fX*., XXE.~.xXB OX!.%XH.@.6 #X-X",
"V <.7 F.0.:.o.x F.q.:.O.4.f.(.q.",
". d.  d.a.y s.g.d.4 d p h.l.k.d "
};
