/* XPM */
static char *_0773f1caebd4cd6e9cc59e1720b010a7qK8BcMmhnUIrfxq[] = {
/* columns rows colors chars-per-pixel */
"16 16 249 2 ",
"   c #470916",
".  c #460F15",
"X  c #480B12",
"o  c #4F0810",
"O  c #4F0913",
"+  c #4A0D12",
"@  c #4A0B16",
"#  c #4D0B15",
"$  c #4C0A16",
"%  c #4B0C15",
"&  c #4B0C17",
"*  c #4C0D15",
"=  c #4F0E14",
"-  c #4C0D16",
";  c #4F0D17",
":  c #4B0618",
">  c #4F0418",
",  c #4F0619",
"<  c #49051C",
"1  c #4B071E",
"2  c #490B18",
"3  c #4B0B1B",
"4  c #4C0A18",
"5  c #4F081A",
"6  c #4E0C1A",
"7  c #490A1D",
"8  c #4A0B1C",
"9  c #4C0C1D",
"0  c #500E12",
"q  c #500A15",
"w  c #520C16",
"e  c #530918",
"r  c #520A18",
"t  c #510A1A",
"y  c #500E1A",
"u  c #510F1B",
"i  c #570A1C",
"p  c #5A0C1C",
"a  c #521117",
"s  c #56101A",
"d  c #58101C",
"f  c #55181F",
"g  c #630F05",
"h  c #670F0E",
"j  c #6E0F0D",
"k  c #6C0E0E",
"l  c #6D0F0F",
"z  c #641005",
"x  c #6A1407",
"c  c #67150A",
"v  c #67120D",
"b  c #6C130B",
"n  c #6D130B",
"m  c #6B120E",
"M  c #6E150D",
"N  c #6C1A0C",
"B  c #6C180E",
"V  c #771605",
"C  c #741907",
"Z  c #731708",
"A  c #741708",
"S  c #77150A",
"D  c #73160F",
"F  c #7B1509",
"G  c #78160B",
"H  c #7E150F",
"J  c #771A0B",
"K  c #761E08",
"L  c #731B0F",
"P  c #771B0C",
"I  c #77190F",
"U  c #771B0E",
"Y  c #721C0D",
"T  c #7A1A0A",
"R  c #7F190A",
"E  c #7C1B0B",
"W  c #791D08",
"Q  c #6C0D11",
"!  c #6D0E12",
"~  c #671110",
"^  c #681310",
"/  c #6E1310",
"(  c #681511",
")  c #691610",
"_  c #6E1614",
"`  c #701212",
"'  c #711613",
"]  c #721216",
"[  c #781710",
"{  c #7A1712",
"}  c #7F1515",
"|  c #751810",
" . c #771812",
".. c #771A12",
"X. c #7E1911",
"o. c #7C1B12",
"O. c #7E1C11",
"+. c #7A1817",
"@. c #772412",
"#. c #570825",
"$. c #570B25",
"%. c #431023",
"&. c #831D0F",
"*. c #811910",
"=. c #811C10",
"-. c #811916",
";. c #87290D",
":. c #882A0E",
">. c #8D2E0E",
",. c #8D300F",
"<. c #9B350F",
"1. c #832211",
"2. c #8D2D14",
"3. c #81201A",
"4. c #82211A",
"5. c #84231C",
"6. c #89271C",
"7. c #9A2F1B",
"8. c #992F1F",
"9. c #913216",
"0. c #963515",
"q. c #943517",
"w. c #993714",
"e. c #9E3714",
"r. c #9D3416",
"t. c #9D3A13",
"y. c #9A3916",
"u. c #993B17",
"i. c #9F3815",
"p. c #9E3C17",
"a. c #933118",
"s. c #933019",
"d. c #96301A",
"f. c #963419",
"g. c #94361A",
"h. c #95361A",
"j. c #97351C",
"k. c #9A3219",
"l. c #9F321B",
"z. c #99371A",
"x. c #9C371B",
"c. c #99351D",
"v. c #9B371D",
"b. c #99371E",
"n. c #933E19",
"m. c #993818",
"M. c #983A18",
"N. c #9B3A19",
"B. c #9D3919",
"V. c #9C3B18",
"C. c #9F3B1B",
"Z. c #9A3D1B",
"A. c #9B3D1B",
"S. c #98391D",
"D. c #9C3A1D",
"F. c #9B3C1C",
"G. c #993E1F",
"H. c #9E3C1F",
"J. c #A03A14",
"K. c #A1391E",
"L. c #A23A1F",
"P. c #963721",
"I. c #973721",
"U. c #9B3720",
"Y. c #9B3920",
"T. c #9D3B20",
"R. c #9E3822",
"E. c #9A3C22",
"W. c #9C3F20",
"Q. c #9A3B25",
"!. c #9D3826",
"~. c #9E3E28",
"^. c #9F4513",
"/. c #9E4116",
"(. c #9A4617",
"). c #9E421B",
"_. c #9A421E",
"`. c #9D411C",
"'. c #9E441F",
"]. c #9B481C",
"[. c #A24212",
"{. c #A74913",
"}. c #A64814",
"|. c #AA4A17",
" X c #A24519",
".X c #A7441B",
"XX c #A6471B",
"oX c #A5431C",
"OX c #A1451C",
"+X c #A2451C",
"@X c #A3461D",
"#X c #A44819",
"$X c #A7481A",
"%X c #A34B1D",
"&X c #A5481C",
"*X c #A4491C",
"=X c #A74B1C",
"-X c #A54A1E",
";X c #AA4A1A",
":X c #A84C1B",
">X c #AB4F1E",
",X c #A15219",
"<X c #9C4720",
"1X c #9F4723",
"2X c #9B4025",
"3X c #9A4727",
"4X c #9C4B20",
"5X c #A44322",
"6X c #A54223",
"7X c #A04623",
"8X c #A14224",
"9X c #A44725",
"0X c #A64427",
"qX c #A74626",
"wX c #A94521",
"eX c #AB4723",
"rX c #AC4620",
"tX c #A04820",
"yX c #A34A22",
"uX c #A44821",
"iX c #A34F21",
"pX c #A24A24",
"aX c #A34927",
"sX c #A74927",
"dX c #A04D25",
"fX c #A84D20",
"gX c #AA4A24",
"hX c #A94827",
"jX c #A64928",
"kX c #A74A29",
"lX c #A4492A",
"zX c #A74A2B",
"xX c #A84A28",
"cX c #AA4B2D",
"vX c #A35122",
"bX c #A75120",
"nX c #A55220",
"mX c #A45024",
"MX c #A55324",
"NX c #AF5320",
"BX c #AD5226",
"VX c #A85627",
"CX c #A55429",
"ZX c #A7532F",
"AX c #AA502B",
"SX c #B65522",
"DX c #B85128",
"FX c #A85432",
"GX c #B05331",
/* pixels */
"lXMX,XfX4Xf 3XnXMXvXFXCXVXZXiX>X",
"B.w.=.7.-.r ;XDX8XE.5.G.A.O.b.A.",
"*XE 6.s.x a XXJ.lX4.,.cX+.2.$XF ",
"P.XXm.sXc 7 BXD.A.cX8XS.qX0.b.eX",
";XJ.H j.B y GX~.AXG.J ^.`.F *XT.",
"D.8.[.S h r >X_.g.o.^.Q.[  Xh.V ",
"m ] K / z $.lX@.k / Z / Q Z | Q ",
"7 ;   6 1 . p + 9 @ % 8 ; % 7 2 ",
"4X$X1X1XoXyX(. X'.hX4Xp (.aX7XqX",
"v.k.&.K.u.=.L.h.1.k.| i bXSXe.t.",
"hXW >.6X| :.{.o.;.h.( % pXp.qXT ",
"u..Xs.A.eXv.m.6XS.oX( s *Xr.D. X",
"hXJ.-.{.w.-.[.R.&.d._ r :XK..XJ.",
"0.U ).P.[ <XK.C E.X.z 0 *X!.s.| ",
"b v L ' ~ Y n ~ N j z + 1XU M v ",
"; , : 6 o O 1 q X $.; %.d , t % "
};
