/* XPM */
static char *dbc6d4b22e9b45988a4e69878a03dcc6vfzzkNIn3k2Ly2cG[] = {
/* columns rows colors chars-per-pixel */
"16 16 218 2 ",
"   c #2B7214",
".  c #2A7414",
"X  c #2C7416",
"o  c #2A6F13",
"O  c #297115",
"+  c #2B7415",
"@  c #2B7216",
"#  c #286F15",
"$  c #286F16",
"%  c #307916",
"&  c #2B7615",
"*  c #2D7816",
"=  c #297516",
"-  c #2D7716",
";  c #307A17",
":  c #287014",
">  c #276C15",
",  c #296F15",
"<  c #296D15",
"1  c #296D14",
"2  c #2A7217",
"3  c #2B6E17",
"4  c #266A15",
"5  c #256D15",
"6  c #297215",
"7  c #277014",
"8  c #266F14",
"9  c #277015",
"0  c #246D14",
"q  c #2C7514",
"w  c #297114",
"e  c #236714",
"r  c #276A15",
"t  c #286A15",
"y  c #276814",
"u  c #2B6F17",
"i  c #296D16",
"p  c #296A16",
"a  c #2B6E15",
"s  c #2A6F15",
"d  c #256A15",
"f  c #256A13",
"g  c #296E15",
"h  c #296F14",
"j  c #276B14",
"k  c #2B7114",
"l  c #266D14",
"z  c #266614",
"x  c #286715",
"c  c #2A6B15",
"v  c #2B6B16",
"b  c #2B6C16",
"n  c #2A6D17",
"m  c #296B15",
"M  c #2D6F14",
"N  c #276A14",
"B  c #2A6D16",
"V  c #2A6F16",
"C  c #2E6F17",
"Z  c #286815",
"A  c #246612",
"S  c #296815",
"D  c #2D6D17",
"F  c #286915",
"G  c #276715",
"H  c #2B6A16",
"J  c #276515",
"K  c #2C6B17",
"L  c #256814",
"P  c #256913",
"I  c #276D15",
"U  c #2A7014",
"Y  c #286C16",
"T  c #276714",
"R  c #296C13",
"E  c #246315",
"W  c #2A6917",
"Q  c #296716",
"!  c #2C6B16",
"~  c #2D6C19",
"^  c #2A6B16",
"/  c #2A6E16",
"(  c #2A6D15",
")  c #2B6B18",
"_  c #34761C",
"`  c #266416",
"'  c #286617",
"]  c #2E6B1B",
"[  c #2A6A17",
"{  c #2D6D18",
"}  c #2B6B17",
"|  c #296C14",
" . c #296B17",
".. c #2B6A17",
"X. c #2C6D16",
"o. c #2D6F17",
"O. c #307119",
"+. c #2C6E19",
"@. c #2A6A18",
"#. c #296617",
"$. c #2D681A",
"%. c #2F6D1A",
"&. c #307019",
"*. c #316E19",
"=. c #2E7019",
"-. c #2F7017",
";. c #2C6A18",
":. c #296C15",
">. c #2F7219",
",. c #36761E",
"<. c #36771B",
"1. c #2F6E18",
"2. c #296816",
"3. c #296818",
"4. c #2E6C19",
"5. c #2F6C1A",
"6. c #37741C",
"7. c #38721E",
"8. c #306C19",
"9. c #327218",
"0. c #35751C",
"q. c #2E6F18",
"w. c #3B7B1F",
"e. c #37781D",
"r. c #2E6E19",
"t. c #276617",
"y. c #2D6C1C",
"u. c #296916",
"i. c #2D6919",
"p. c #326B1B",
"a. c #2F681A",
"s. c #2F7019",
"d. c #2F6F19",
"f. c #33731B",
"g. c #37781C",
"h. c #306F1C",
"j. c #33721C",
"k. c #31711B",
"l. c #2D6D1A",
"z. c #2B6A19",
"x. c #296519",
"c. c #2A6819",
"v. c #336D1C",
"b. c #2F6A18",
"n. c #286516",
"m. c #2E6D19",
"M. c #2C6C18",
"N. c #306F1A",
"B. c #38741F",
"V. c #37721E",
"C. c #316D19",
"Z. c #2A6818",
"A. c #286217",
"S. c #266216",
"D. c #246316",
"F. c #306E1C",
"G. c #2B6B19",
"H. c #286419",
"J. c #2F6C1C",
"K. c #2B691A",
"L. c #2B6A1A",
"P. c #2F6A1C",
"I. c #306B1C",
"U. c #2E6D18",
"Y. c #2D6719",
"T. c #2B6519",
"R. c #286519",
"E. c #2F6B1B",
"W. c #2F6D1B",
"Q. c #2E681A",
"!. c #296518",
"~. c #286618",
"^. c #31711C",
"/. c #2E6D1C",
"(. c #306B1E",
"). c #346F1E",
"_. c #276816",
"`. c #266814",
"'. c #286B16",
"]. c #2F691A",
"[. c #2C651A",
"{. c #2A6319",
"}. c #2C671A",
"|. c #316F1E",
" X c #2E6A1B",
".X c #296419",
"XX c #2A6919",
"oX c #32711C",
"OX c #2D671B",
"+X c #2F6C18",
"@X c #2A6816",
"#X c #286817",
"$X c #296A18",
"%X c #2B6318",
"&X c #2C6519",
"*X c #286117",
"=X c #286119",
"-X c #2F6B1C",
";X c #36701E",
":X c #326C1B",
">X c #2E6B1A",
",X c #35721D",
"<X c #2C681A",
"1X c #2C671B",
"2X c #2C6B18",
"3X c #316E1B",
"4X c #2E6A1A",
"5X c #245A18",
"6X c #286017",
"7X c #2B631A",
"8X c #3B7522",
"9X c #2D671A",
"0X c #2C6719",
"qX c #2D6C1A",
"wX c #2A6718",
"eX c #266418",
"rX c #276717",
"tX c white",
/* pixels */
"  . X o O + @ # $ % & * = - ; : ",
"> , < 1 # 2 3 4 5 6 7 8 9 0 q w ",
"e r t y u i p a s d f g h j k l ",
"z x c v b n m M 1 4 N B V C Z A ",
"S D F G H J K M L P I U Y F T R ",
"E W Q p ! K ~ ^ r / B ( m ^ ) _ ",
"` ' ] [ ! { } |  ...X.o.O.+.@.{ ",
"#.$.%.&.*.H =.-.;...:.>.,.<.1.2.",
"3.4.5.6.7.8.O.9.1.0.q.C w.e.r.t.",
"y.u.i.p.a.$.s.d.f.g.h.j.,.k.l.z.",
"x.` c.v.b.n.m.M.m.N.B.V.C.Z.N.;.",
"A.S.D.F.G.H.J.K.L.z.P.I.U.3.@.S ",
"Y.T.R.E.W.Q.!.~.^./.(.).~ _.`.'.",
"].[.{.}.|. X.XXXk.oXOX[.+X@X#X$X",
"%X&X*X=X-X;X:X>X>X,X<X1X2X) 3X4X",
"5X6X%X7XA.).8X9X0X-XqXQ wX>XeXrX"
};
