/* XPM */
static char *_fc22de513cb4caa8eec631c0cd7c9e4Mt4QCIiUhQ8hZxVO[] = {
/* columns rows colors chars-per-pixel */
"16 16 251 2 ",
"   c #3E0C17",
".  c #470B0D",
"X  c #45080F",
"o  c #4A080C",
"O  c #5C0D09",
"+  c #5A0F0C",
"@  c #5B100B",
"#  c #5F1009",
"$  c #450311",
"%  c #460614",
"&  c #4E0715",
"*  c #460A14",
"=  c #470916",
"-  c #460817",
";  c #4F0810",
":  c #480816",
">  c #490B16",
",  c #4D0916",
"<  c #4A0D15",
"1  c #4A0C17",
"2  c #460519",
"3  c #440719",
"4  c #4D011D",
"5  c #4B051F",
"6  c #4C041C",
"7  c #4C071C",
"8  c #440A18",
"9  c #44091B",
"0  c #46091B",
"q  c #430A1D",
"w  c #47091E",
"e  c #480819",
"r  c #4B0819",
"t  c #49091A",
"y  c #480B1B",
"u  c #4F0B18",
"i  c #4C091B",
"p  c #4F081A",
"a  c #490A1D",
"s  c #490A1F",
"d  c #500613",
"f  c #520914",
"g  c #510917",
"h  c #540C17",
"j  c #51061D",
"k  c #53091A",
"l  c #550B18",
"z  c #510D1C",
"x  c #4F101B",
"c  c #49101F",
"v  c #5C1211",
"b  c #591514",
"n  c #581715",
"m  c #5C1616",
"M  c #51121A",
"N  c #54101B",
"B  c #5E1318",
"V  c #58171B",
"C  c #5C171A",
"Z  c #59111D",
"A  c #58141F",
"S  c #561819",
"D  c #5B191B",
"F  c #630901",
"G  c #650B0A",
"H  c #640C0B",
"J  c #65150A",
"K  c #6F140F",
"L  c #75140B",
"P  c #76160A",
"I  c #77170B",
"U  c #72150E",
"Y  c #74160E",
"T  c #79170E",
"R  c #76190A",
"E  c #731C09",
"W  c #7A1A0E",
"Q  c #7A1D0E",
"!  c #600911",
"~  c #610C11",
"^  c #670E14",
"/  c #621213",
"(  c #641010",
")  c #601615",
"_  c #6B1111",
"`  c #6B1113",
"'  c #6F1411",
"]  c #681215",
"[  c #6F1314",
"{  c #6B1516",
"}  c #6F1715",
"|  c #6F1716",
" . c #6F1B10",
".. c #691A16",
"X. c #6D1A16",
"o. c #6E1B17",
"O. c #641319",
"+. c #6B111A",
"@. c #621819",
"#. c #60181B",
"$. c #631F1C",
"%. c #711113",
"&. c #7D1410",
"*. c #7C1611",
"=. c #771E10",
"-. c #771C17",
";. c #7E1814",
":. c #762708",
">. c #792012",
",. c #7B2413",
"<. c #7E2215",
"1. c #7E261A",
"2. c #4C0525",
"3. c #420B20",
"4. c #450B21",
"5. c #440A22",
"6. c #410D23",
"7. c #490921",
"8. c #4C0F21",
"9. c #520A20",
"0. c #411023",
"q. c #581B2A",
"w. c #841A0D",
"e. c #86200A",
"r. c #82240A",
"t. c #973A0F",
"y. c #842215",
"u. c #812B10",
"i. c #842E13",
"p. c #852816",
"a. c #8C2D11",
"s. c #8E2F11",
"d. c #8D2814",
"f. c #8E2B14",
"g. c #8B2E1D",
"h. c #922A11",
"j. c #912F12",
"k. c #942E15",
"l. c #9D2F14",
"z. c #912E1B",
"x. c #952F19",
"c. c #902F1F",
"v. c #982F1C",
"b. c #992F1F",
"n. c #8D3011",
"m. c #8F3014",
"M. c #88341A",
"N. c #943112",
"B. c #953213",
"V. c #913413",
"C. c #923412",
"Z. c #913216",
"A. c #963515",
"S. c #993012",
"D. c #9D3210",
"F. c #9E3311",
"G. c #993710",
"H. c #9B3713",
"J. c #9A3114",
"K. c #9B3316",
"L. c #9C3014",
"P. c #993416",
"I. c #9A3517",
"U. c #9C3417",
"Y. c #943813",
"T. c #9D3917",
"R. c #913119",
"E. c #90301A",
"W. c #93301D",
"Q. c #95321F",
"!. c #91371D",
"~. c #9B331A",
"^. c #9A3519",
"/. c #9C361D",
"(. c #9D371E",
"). c #913A1F",
"_. c #913E1E",
"`. c #983B1A",
"'. c #9E391B",
"]. c #993F1D",
"[. c #A43915",
"{. c #A03719",
"}. c #AC3E1B",
"|. c #892F26",
" X c #902920",
".X c #942E22",
"XX c #8E3D20",
"oX c #9B3421",
"OX c #9B3622",
"+X c #923B27",
"@X c #933C28",
"#X c #A13D26",
"$X c #9F4717",
"%X c #9F4418",
"&X c #9D401E",
"*X c #99441D",
"=X c #A14619",
"-X c #A4441A",
";X c #A7431F",
":X c #A14919",
">X c #A44F18",
",X c #A5481D",
"<X c #A44B1F",
"1X c #A64E1C",
"2X c #AA481B",
"3X c #AE4818",
"4X c #AD4B1A",
"5X c #A9491F",
"6X c #AD4B1C",
"7X c #A84D1E",
"8X c #AD4E1E",
"9X c #B34F1B",
"0X c #B3491F",
"qX c #A05119",
"wX c #B0501D",
"eX c #974126",
"rX c #9C4623",
"tX c #9E4729",
"yX c #984C2A",
"uX c #994D2D",
"iX c #995322",
"pX c #A44322",
"aX c #A34521",
"sX c #A34722",
"dX c #A94722",
"fX c #A84724",
"gX c #A04B22",
"hX c #A54922",
"jX c #A64822",
"kX c #A74F21",
"lX c #A34924",
"zX c #AD4A21",
"xX c #AB4F20",
"cX c #A84F23",
"vX c #AA4F22",
"bX c #AB4924",
"nX c #AB4926",
"mX c #A94B27",
"MX c #B14C20",
"NX c #B24C24",
"BX c #B54D26",
"VX c #B94C25",
"CX c #B24A2D",
"ZX c #A05126",
"AX c #AB5024",
"SX c #A5582E",
"DX c #B75120",
"FX c #B75023",
"GX c #B35026",
"HX c #B85423",
"JX c #AE5630",
/* pixels */
"iXvXSXJXuXq.kX1XiXzX*X2 A AXbXyX",
"*.g.wXoX..D 9X`.U.Y ,.lX=Xt.%X8X",
"c.v.eXm.J 4 C CXk.d. X'.L.v.C.c.",
"oX).1.#X1 Z qX%X-.F.L.Y.AXJ.J.|.",
"&XNXe.:._.B HXA.E.4Xa.{ Q zX4XM.",
"lXE K [ _ C dX/.2XR / l +.w.R m ",
"X.$ z ^ 5 > m ' =.+ f 0 k F J 8.",
"t 7.f . 6.t - g e p t 8 - u a 5.",
"<XzXXX2 b lXpXjX1X+X,   b bX+Xq ",
"wXV.y.nXaXG.U.].FXW.! M mX7Xr.rX",
"U..Xp.;.[.n.} P {.:XO V BXU.f.).",
"F.U.j.Z.E.x.h.V.VXi.6 @.<XD.^.a.",
"T.-XP ` ,.GXMXv.U U v 4.$.hX/.tX",
"pXQ + l J %.<.4Xu.%.H N dXN.W X.",
"T @ 2.& k 7.H W ] $ - C }.O.$ 1 ",
"d 1 5.a o y 8.> p i 9 9 D 7 8 0."
};
