/* XPM */
static char *ae8833b2e982464ea1823cfc91922e15GMoFcA28D71Xyu3a[] = {
/* columns rows colors chars-per-pixel */
"16 16 251 2 ",
"   c #2B7214",
".  c #2A7414",
"X  c #2C7416",
"o  c #2A6F13",
"O  c #297115",
"+  c #2B7415",
"@  c #2B7216",
"#  c #286F15",
"$  c #286F16",
"%  c #307916",
"&  c #2B7615",
"*  c #2D7816",
"=  c #297516",
"-  c #2D7716",
";  c #307A17",
":  c #287014",
">  c #276C15",
",  c #296F15",
"<  c #296D15",
"1  c #296D14",
"2  c #2A7216",
"3  c #296E16",
"4  c #246912",
"5  c #236C13",
"6  c #277214",
"7  c #257013",
"8  c #266F14",
"9  c #277014",
"0  c #246D14",
"q  c #2C7514",
"w  c #297114",
"e  c #236714",
"r  c #276A15",
"t  c #286A15",
"y  c #276814",
"u  c #2B6E16",
"i  c #306A1B",
"p  c #4E7635",
"a  c #648047",
"s  c #5C783E",
"d  c #4A642D",
"f  c #416427",
"g  c #356D1E",
"h  c #2C7016",
"j  c #266B14",
"k  c #2B7114",
"l  c #266D14",
"z  c #266614",
"x  c #286715",
"c  c #2A6B15",
"v  c #2A6B16",
"b  c #47702C",
"n  c #85755C",
"m  c #C8B09E",
"M  c #E2C9B9",
"N  c #CDADA1",
"B  c #9E7672",
"V  c #A9877D",
"C  c #9C8870",
"Z  c #557136",
"A  c #2E6E17",
"S  c #286815",
"D  c #246612",
"F  c #296815",
"G  c #2D6D17",
"H  c #296915",
"J  c #3B6223",
"K  c #927D68",
"L  c #D4B4A8",
"P  c #E7CEBE",
"I  c #E0C7B2",
"U  c #C19F93",
"Y  c #BC9B93",
"T  c #E0C6B5",
"R  c #D7BBA2",
"E  c #7D6C52",
"W  c #2B6617",
"Q  c #276813",
"!  c #296C13",
"~  c #246315",
"^  c #296916",
"/  c #32651D",
"(  c #82705B",
")  c #CFAEA3",
"_  c #E2CAB5",
"`  c #E2CAB3",
"'  c #DBC2A8",
"]  c #CEB398",
"[  c #DCC3AD",
"{  c #DFC6B1",
"}  c #D0B39A",
"|  c #9D8870",
" . c #3D6C25",
".. c #2A6B18",
"X. c #34761C",
"o. c #266416",
"O. c #286617",
"+. c #386422",
"@. c #947767",
"#. c #DFC5AF",
"$. c #DAC2A4",
"%. c #DCC4A8",
"&. c #DBC3A5",
"*. c #D2B89B",
"=. c #D3B99D",
"-. c #D4BA9E",
";. c #C3A090",
":. c #B28F84",
">. c #57623C",
",. c #2A6A17",
"<. c #2D6D18",
"1. c #296617",
"2. c #2E681B",
"3. c #576A47",
"4. c #98766A",
"5. c #D7BF9F",
"6. c #D7BE9F",
"7. c #D1B69A",
"8. c #D6BE9E",
"9. c #C3A590",
"0. c #B69285",
"q. c #CDB098",
"w. c #CBAB96",
"e. c #AF8B81",
"r. c #4F5934",
"t. c #2E6E18",
"y. c #296816",
"u. c #296818",
"i. c #2F6C1B",
"p. c #5E5B45",
"a. c #916762",
"s. c #CDB297",
"d. c #CDB298",
"f. c #B29082",
"g. c #C6A892",
"h. c #BD9B8B",
"j. c #916B69",
"k. c #AA857C",
"l. c #A9877C",
"z. c #896464",
"x. c #4B5532",
"c. c #2E6E19",
"v. c #276617",
"b. c #2D6C1C",
"n. c #2A6817",
"m. c #4B4934",
"M. c #79494B",
"N. c #9E776E",
"B. c #A58177",
"V. c #A9847B",
"C. c #B48E85",
"Z. c #926967",
"A. c #6B4549",
"S. c #7B5051",
"D. c #6C4549",
"F. c #583640",
"G. c #444E2E",
"H. c #2D6D1A",
"J. c #2B6A19",
"K. c #296519",
"L. c #276518",
"P. c #4F523E",
"I. c #6E4347",
"U. c #885C5B",
"Y. c #815656",
"T. c #8C6160",
"R. c #835D5E",
"E. c #6C4448",
"W. c #663E42",
"Q. c #704345",
"!. c #623C41",
"~. c #593943",
"^. c #475536",
"/. c #307019",
"(. c #2C6A18",
"). c #286217",
"_. c #276317",
"`. c #43663C",
"'. c #605152",
"]. c #633F46",
"[. c #643E43",
"{. c #744647",
"}. c #603C42",
"|. c #5D3A41",
" X c #673F43",
".X c #5A3A42",
"XX c #685761",
"oX c #526E4D",
"OX c #2A6A18",
"+X c #2D6719",
"@X c #2B6518",
"#X c #2A661B",
"$X c #496A3F",
"%X c #61635B",
"&X c #5F474C",
"*X c #5F3A41",
"=X c #5B3841",
"-X c #674E56",
";X c #69525A",
":X c #5F434C",
">X c #615656",
",X c #61735E",
"<X c #366B28",
"1X c #266814",
"2X c #286B16",
"3X c #2F691A",
"4X c #2C651A",
"5X c #296319",
"6X c #2D681C",
"7X c #3A722A",
"8X c #48663B",
"9X c #414F2D",
"0X c #45542F",
"qX c #566A43",
"wX c #52704A",
"eX c #4D6746",
"rX c #3D6533",
"tX c #336D1F",
"yX c #286817",
"uX c #296A18",
"iX c #2B6318",
"pX c #2C6519",
"aX c #286117",
"sX c #286119",
"dX c #2E6B1C",
"fX c #35701E",
"gX c #316D1B",
"hX c #2E6C19",
"jX c #2E6B19",
"kX c #34721C",
"lX c #2B6919",
"zX c #2B671A",
"xX c #2C6B17",
"cX c #2B6B18",
"vX c #316E1B",
"bX c #2E6A1A",
"nX c #245A18",
"mX c #286017",
"MX c #2B631A",
"NX c #346F1E",
"BX c #3B7522",
"VX c #2D671A",
"CX c #2C6719",
"ZX c #2F6B1C",
"AX c #2D6C1A",
"SX c #296716",
"DX c #2A6718",
"FX c #2E6B1A",
"GX c #266418",
"HX c #276717",
"JX c white",
/* pixels */
"  . X o O + @ # $ % & * = - ; : ",
"> , < 1 # 2 3 4 5 6 7 8 9 0 q w ",
"e r t y u i p a s d f g h j k l ",
"z x c v b n m M N B V C Z A S D ",
"F G H J K L P I U Y T R E W Q ! ",
"~ ^ / ( ) _ ` ' ] [ { } |  ...X.",
"o.O.+.@.#.$.%.&.*.=.-.;.:.>.,.<.",
"1.2.3.4.5.6.7.8.9.0.q.w.e.r.t.y.",
"u.i.p.a.s.d.f.g.h.j.k.l.z.x.c.v.",
"b.n.m.M.N.B.V.C.Z.A.S.D.F.G.H.J.",
"K.L.P.I.U.Y.T.R.E.W.Q.!.~.^./.(.",
")._.`.'.].[.{.}.|. X!..XXXoXOXF ",
"+X@X#X$X%X&X*X=X-X;X:X>X,X<X1X2X",
"3X4X5X6X7X8X9X0XqXwXeXrXtXy.yXuX",
"iXpXaXsXdXfXgXhXjXkXlXzXxXcXvXbX",
"nXmXiXMX).NXBXVXCXZXAXSXDXFXGXHX"
};
