/* XPM */
static char *_2bd0f91a10240b09feee2a52f858082chyRsk2T0Pzk6dle[] = {
/* columns rows colors chars-per-pixel */
"16 16 231 2 ",
"   c #3C0C1A",
".  c #4E070F",
"X  c #4B080F",
"o  c #4E0611",
"O  c #4E0317",
"+  c #4A0911",
"@  c #4A0812",
"#  c #490A13",
"$  c #4E0810",
"%  c #4A0B14",
"&  c #480816",
"*  c #4A0816",
"=  c #4D0B15",
"-  c #4C0A16",
";  c #4D0B17",
":  c #4A0D15",
">  c #4A061B",
",  c #4E0719",
"<  c #4C061E",
"1  c #490919",
"2  c #480A19",
"3  c #4A0A1A",
"4  c #4C0A18",
"5  c #4F081A",
"6  c #4F0D1B",
"7  c #4B0B1C",
"8  c #510914",
"9  c #500A15",
"0  c #540B14",
"q  c #560C1B",
"w  c #52091C",
"e  c #4D101F",
"r  c #561415",
"t  c #561617",
"y  c #5C1116",
"u  c #51111F",
"i  c #50171E",
"p  c #6B0D0E",
"a  c #691306",
"s  c #65160F",
"d  c #6A1109",
"f  c #6B140B",
"g  c #6F1709",
"h  c #6F170B",
"j  c #6E130E",
"k  c #6F150C",
"l  c #6E1B0B",
"z  c #721609",
"x  c #71140D",
"c  c #72150D",
"v  c #70160E",
"b  c #70170F",
"n  c #74150F",
"m  c #76150E",
"M  c #680E10",
"N  c #651717",
"B  c #6C1011",
"V  c #6C1211",
"C  c #6E1414",
"Z  c #6F1811",
"A  c #701210",
"S  c #731410",
"D  c #721510",
"F  c #731513",
"G  c #701514",
"H  c #731516",
"J  c #781710",
"K  c #731813",
"L  c #721915",
"P  c #741B15",
"I  c #7F1D14",
"U  c #741C18",
"Y  c #761E1A",
"T  c #7B230D",
"R  c #4B0720",
"E  c #400D20",
"W  c #460C25",
"Q  c #450F26",
"!  c #511320",
"~  c #511521",
"^  c #541623",
"/  c #801D0A",
"(  c #811F12",
")  c #81250E",
"_  c #952C0F",
"`  c #892F15",
"'  c #8C2F1E",
"]  c #912D13",
"[  c #962F10",
"{  c #962E13",
"}  c #932F15",
"|  c #912F16",
" . c #932F17",
".. c #952F16",
"X. c #942E17",
"o. c #992F17",
"O. c #962B19",
"+. c #912E19",
"@. c #922F1A",
"#. c #942E18",
"$. c #972E19",
"%. c #942D1C",
"&. c #982F1C",
"*. c #85301C",
"=. c #88301A",
"-. c #8D331B",
";. c #88311D",
":. c #89321F",
">. c #963212",
",. c #963313",
"<. c #903017",
"1. c #933116",
"2. c #953215",
"3. c #943016",
"4. c #953117",
"5. c #943217",
"6. c #973216",
"7. c #993211",
"8. c #983112",
"9. c #9D3013",
"0. c #993114",
"q. c #983015",
"w. c #9A3114",
"e. c #9B3215",
"r. c #9A3016",
"t. c #983317",
"y. c #9A3217",
"u. c #983516",
"i. c #9A3616",
"p. c #9C3417",
"a. c #9E3716",
"s. c #92321A",
"d. c #943018",
"f. c #953119",
"g. c #973118",
"h. c #963019",
"j. c #953318",
"k. c #943219",
"l. c #963218",
"z. c #95311A",
"x. c #96301A",
"c. c #97311A",
"v. c #95321B",
"b. c #96321A",
"n. c #96321B",
"m. c #97331B",
"M. c #95301C",
"N. c #94311C",
"B. c #97331C",
"V. c #97301F",
"C. c #91371F",
"Z. c #96361E",
"A. c #993118",
"S. c #9A3018",
"D. c #983219",
"F. c #9B3318",
"G. c #99301A",
"H. c #9C3719",
"J. c #9E3718",
"K. c #9C371B",
"L. c #9F371A",
"P. c #98321C",
"I. c #98361D",
"U. c #9B371D",
"Y. c #98351E",
"T. c #9F371C",
"R. c #9F371E",
"E. c #9C3818",
"W. c #9F3819",
"Q. c #9F3D18",
"!. c #A23713",
"~. c #A3371A",
"^. c #A0361E",
"/. c #A03918",
"(. c #A23B18",
"). c #A1381B",
"_. c #A2391B",
"`. c #A13A1B",
"'. c #A33A1A",
"]. c #A53819",
"[. c #A0381F",
"{. c #A4381C",
"}. c #A5391D",
"|. c #883120",
" X c #993920",
".X c #9A3A21",
"XX c #A03E21",
"oX c #A43C23",
"OX c #A83820",
"+X c #9A421E",
"@X c #9E471C",
"#X c #9E4E1B",
"$X c #9E4A1E",
"%X c #A24212",
"&X c #A74111",
"*X c #A0401A",
"=X c #A3431B",
"-X c #A0421C",
";X c #A1451E",
":X c #A3471E",
">X c #A2461F",
",X c #A6461E",
"<X c #A34B1D",
"1X c #8E4222",
"2X c #8F4323",
"3X c #944622",
"4X c #904325",
"5X c #974424",
"6X c #9F4723",
"7X c #984525",
"8X c #A34521",
"9X c #A24621",
"0X c #A14422",
"qX c #A04623",
"wX c #A14627",
"eX c #A04820",
"rX c #A04822",
"tX c #A44823",
"yX c #A14D21",
"uX c #A34F23",
"iX c #A44C24",
"pX c #A64E26",
"aX c #AA4E25",
"sX c #A04A29",
"dX c #A64D2F",
"fX c #A35026",
"gX c #A45024",
"hX c #A9512B",
"jX c #A9562A",
"kX c #B75120",
"lX c #BC5A2D",
/* pixels */
"3XjX#XaXuXi 1XhXgX<XuXuXgXuXiXiX",
"Z.i.H.}.I 9 8XkX`.W.a.a.`.~.H.W.",
"' $.V.G.H % +X&Xv.v.X.4.4.4.v.X.",
"-.q.[ ,.Z 2 6X(.X.v.4.X.v.v.v.v.",
"` ^.7.v.v > 0XR.X.a.q.i.q.u.K.Y.",
":.%.Y.J d w -XXXX.G.v.4.4.4.U..X",
"s z v V f $ wXT x F j H L L Y Y ",
"W $ 7 % + W y 6 * 2 % u ^ ~ ~ e ",
"4X,X<X0X;X@X0X;X<X(.0Xt 4XdX$X=X",
"C.].`.[.].`.`.~.W.oX( . sXlX(.`.",
"*.o.X.+.X.4.$.s.+.s.C : 5X%X<.] ",
":.o.4.v.v.4.G.v.G.u.l + 6X!.$.a.",
"` o.7.q.q.,.e.7.G.$.v 5 0XOXO._ ",
"*.F.q.P.q.4.G.K.<.( V < iXH.s.Y.",
"N n v H n h S v l p p = 7X) a z ",
"E 9 + 2 4 + 5 - 2 O q   r 9 R , "
};
